<svg width="10" height="4" viewBox="0 0 10 4" fill="none" xmlns="http://www.w3.org/2000/svg">
<path d="M1.98136 1.852C1.98136 2.036 1.91936 2.19 1.79536 2.314C1.67536 2.438 1.52136 2.5 1.33336 2.5C1.14536 2.5 0.989363 2.438 0.865363 2.314C0.745363 2.19 0.685363 2.036 0.685363 1.852C0.685363 1.664 0.745363 1.51 0.865363 1.39C0.989363 1.266 1.14536 1.204 1.33336 1.204C1.52136 1.204 1.67536 1.266 1.79536 1.39C1.91936 1.51 1.98136 1.664 1.98136 1.852ZM7.80019 2.278H9.10819V2.686H7.80019V4H7.39219V2.686H6.08419V2.278H7.39219V0.964H7.80019V2.278Z" fill="#6E6E73"/>
</svg>
