<svg width="5" height="8" viewBox="0 0 5 8" fill="none" xmlns="http://www.w3.org/2000/svg">
<path d="M5.00547 4.01987C5.00547 4.16059 4.95243 4.28373 4.84636 4.38928L1.82978 7.38417C1.73696 7.47653 1.62205 7.52271 1.48503 7.52271C1.34801 7.52271 1.23089 7.47543 1.13365 7.38088C1.03641 7.28632 0.987793 7.17088 0.987793 7.03455C0.987793 6.89822 1.03862 6.77948 1.14028 6.67833L3.81873 4.01987L1.14028 1.3614C1.03862 1.26025 0.987793 1.14151 0.987793 1.00518C0.987793 0.868849 1.03641 0.753407 1.13365 0.658854C1.23089 0.564302 1.34801 0.517025 1.48503 0.517025C1.62205 0.517025 1.73696 0.563202 1.82978 0.655556L4.84636 3.65045C4.95243 3.756 5.00547 3.87914 5.00547 4.01987Z" fill="#0066CC"/>
</svg>
