<svg width="8" height="10" viewBox="0 0 8 10" fill="none" xmlns="http://www.w3.org/2000/svg">
<path d="M-5.59343e-05 8.15005V1.86205C-0.015454 1.73987 -0.00455261 1.6158 0.0319174 1.49817C0.0683875 1.38054 0.129583 1.27206 0.211403 1.18002C0.293222 1.08797 0.393773 1.01448 0.506317 0.964468C0.61886 0.914459 0.740794 0.889087 0.863944 0.890053C1.10004 0.879978 1.33324 0.945106 1.52994 1.07605L6.64794 4.07605C7.10394 4.34005 7.34994 4.55605 7.34994 4.98205C7.34994 5.40805 7.10394 5.62405 6.64794 5.88805L1.52994 8.88805C1.33324 9.019 1.10004 9.08413 0.863944 9.07405C0.744728 9.07616 0.626397 9.05322 0.516604 9.00672C0.406811 8.96022 0.308 8.89119 0.226564 8.8041C0.145127 8.71701 0.0828775 8.61379 0.0438407 8.50113C0.00480396 8.38846 -0.0101507 8.26886 -5.59343e-05 8.15005Z" fill="black"/>
</svg>
