<svg width="13" height="15" viewBox="0 0 13 15" fill="none" xmlns="http://www.w3.org/2000/svg">
<path d="M10.8535 3.02828H9.83303C9.72363 2.21726 9.32728 1.47228 8.71582 0.92837C8.10436 0.384462 7.31827 0.0776246 6.50003 0.0634766C5.68179 0.0776246 4.8957 0.384462 4.28424 0.92837C3.67278 1.47228 3.27643 2.21726 3.16703 3.02828H2.14703C1.58582 3.02865 1.04769 3.2517 0.650776 3.64846C0.253865 4.04522 0.030612 4.58327 0.0300293 5.14448V12.86C0.0305322 13.4211 0.253634 13.9591 0.650375 14.356C1.04712 14.7528 1.58509 14.976 2.14623 14.9767H10.8532C11.4145 14.9762 11.9526 14.753 12.3495 14.3562C12.7463 13.9593 12.9695 13.4212 12.97 12.86V5.14448C12.9694 4.58335 12.7463 4.04538 12.3495 3.64863C11.9527 3.25189 11.4147 3.02878 10.8535 3.02828ZM6.50003 1.16308C7.02744 1.17454 7.53515 1.36565 7.93921 1.7048C8.34328 2.04395 8.61951 2.51084 8.72223 3.02828H4.27783C4.38055 2.51084 4.65678 2.04395 5.06085 1.7048C5.46491 1.36565 5.97262 1.17454 6.50003 1.16308ZM11.87 12.86C11.8697 13.1296 11.7626 13.388 11.572 13.5787C11.3814 13.7693 11.123 13.8767 10.8534 13.8771H2.14653C1.87697 13.8766 1.61859 13.7693 1.42804 13.5786C1.23749 13.388 1.13032 13.1295 1.13003 12.86V5.14448C1.13035 4.87496 1.23755 4.61656 1.42814 4.42598C1.61872 4.2354 1.87711 4.12819 2.14663 4.12788H10.8536C11.1231 4.12825 11.3815 4.23548 11.572 4.42605C11.7625 4.61663 11.8697 4.87499 11.87 5.14448V12.86Z" fill="black" fill-opacity="0.8"/>
</svg>
